<svg xmlns="http://www.w3.org/2000/svg" viewBox="0 0 800 1000" preserveAspectRatio="xMidYMax slice">
<defs>
  <linearGradient id="sky" x1="0" y1="0" x2="0" y2="1">
    <stop offset="0" stop-color="oklch(0.15 0.03 30)"/><stop offset=".45" stop-color="oklch(0.28 0.08 25)"/><stop offset=".72" stop-color="oklch(0.6 0.15 45)"/>
  </linearGradient>
  <radialGradient id="moonglow"><stop offset=".35" stop-color="oklch(0.76 0.15 58)" stop-opacity=".55"/><stop offset="1" stop-color="oklch(0.76 0.15 58)" stop-opacity="0"/></radialGradient>
  <radialGradient id="lantern"><stop offset="0" stop-color="oklch(0.88 0.17 128)" stop-opacity=".55"/><stop offset="1" stop-color="oklch(0.88 0.17 128)" stop-opacity="0"/></radialGradient>
</defs>
<rect width="800" height="1000" fill="url(#sky)"/>
<circle cx="252.6" cy="78.3" r="1.4" fill="oklch(0.9 0.1 80)" opacity="0.3"/><circle cx="474.8" cy="382.4" r="0.4" fill="oklch(0.9 0.1 80)" opacity="0.7"/><circle cx="249.6" cy="426.2" r="1.5" fill="oklch(0.9 0.1 80)" opacity="0.7"/><circle cx="600.7" cy="89.4" r="1.2" fill="oklch(0.9 0.1 80)" opacity="0.4"/><circle cx="571.4" cy="143.7" r="0.6" fill="oklch(0.9 0.1 80)" opacity="0.4"/><circle cx="644.6" cy="216.2" r="1" fill="oklch(0.9 0.1 80)" opacity="0.3"/><circle cx="502.7" cy="402.2" r="1.3" fill="oklch(0.9 0.1 80)" opacity="0.7"/><circle cx="386.8" cy="277" r="0.6" fill="oklch(0.9 0.1 80)" opacity="0.6"/><circle cx="665.8" cy="453" r="1" fill="oklch(0.9 0.1 80)" opacity="0.7"/><circle cx="219.5" cy="134.3" r="1.2" fill="oklch(0.9 0.1 80)" opacity="0.8"/><circle cx="87.1" cy="293.3" r="1.3" fill="oklch(0.9 0.1 80)" opacity="0.3"/><circle cx="782.4" cy="348.4" r="0.8" fill="oklch(0.9 0.1 80)" opacity="0.5"/><circle cx="645.7" cy="386.9" r="1" fill="oklch(0.9 0.1 80)" opacity="0.7"/><circle cx="610.4" cy="231" r="1" fill="oklch(0.9 0.1 80)" opacity="0.4"/><circle cx="441.7" cy="388.9" r="1.1" fill="oklch(0.9 0.1 80)" opacity="0.8"/><circle cx="108.7" cy="166.1" r="0.4" fill="oklch(0.9 0.1 80)" opacity="0.6"/><circle cx="275" cy="225.7" r="1.1" fill="oklch(0.9 0.1 80)" opacity="0.3"/><circle cx="636.3" cy="142.8" r="0.5" fill="oklch(0.9 0.1 80)" opacity="0.7"/><circle cx="586.4" cy="404" r="0.7" fill="oklch(0.9 0.1 80)" opacity="0.6"/><circle cx="519.2" cy="130.4" r="1.3" fill="oklch(0.9 0.1 80)" opacity="0.7"/><circle cx="244.4" cy="430.3" r="1.5" fill="oklch(0.9 0.1 80)" opacity="0.5"/><circle cx="584" cy="73.5" r="1.1" fill="oklch(0.9 0.1 80)" opacity="0.8"/><circle cx="466.6" cy="429.1" r="1.2" fill="oklch(0.9 0.1 80)" opacity="0.3"/><circle cx="522.7" cy="44.5" r="0.4" fill="oklch(0.9 0.1 80)" opacity="0.6"/><circle cx="128" cy="329.4" r="1.4" fill="oklch(0.9 0.1 80)" opacity="0.5"/><circle cx="76.3" cy="298.9" r="1" fill="oklch(0.9 0.1 80)" opacity="0.6"/><circle cx="467.9" cy="201.5" r="1.7" fill="oklch(0.9 0.1 80)" opacity="0.8"/><circle cx="185.9" cy="102.5" r="0.8" fill="oklch(0.9 0.1 80)" opacity="0.6"/><circle cx="756.2" cy="88.6" r="0.8" fill="oklch(0.9 0.1 80)" opacity="0.3"/><circle cx="237.1" cy="203.5" r="0.4" fill="oklch(0.9 0.1 80)" opacity="0.4"/><circle cx="746.2" cy="312.6" r="1.3" fill="oklch(0.9 0.1 80)" opacity="0.4"/><circle cx="718.1" cy="459.9" r="0.8" fill="oklch(0.9 0.1 80)" opacity="0.6"/><circle cx="195" cy="389.5" r="0.8" fill="oklch(0.9 0.1 80)" opacity="0.3"/><circle cx="794.7" cy="309.5" r="1.5" fill="oklch(0.9 0.1 80)" opacity="0.8"/><circle cx="11.4" cy="203" r="0.7" fill="oklch(0.9 0.1 80)" opacity="0.8"/><circle cx="203.4" cy="57.4" r="0.5" fill="oklch(0.9 0.1 80)" opacity="0.4"/>
<circle cx="224" cy="580" r="286" fill="url(#moonglow)"/>
<circle cx="224" cy="580" r="130" fill="oklch(0.9 0.1 80)"/>
<path fill="oklch(0.39 0.1 25)" d="M0 1000 L0 636.4 L16 640.7 L32 640.7 L48 639.8 L64 641.1 L80 645.6 L96 652 L112 657.1 L128 658.1 L144 654.3 L160 647.6 L176 641.9 L192 641.1 L208 646.7 L224 657.3 L240 669.3 L256 678.4 L272 682.2 L288 680.9 L304 677.1 L320 673.9 L336 673.3 L352 674.3 L368 674.1 L384 669.4 L400 658.4 L416 642.3 L432 624.7 L448 610.1 L464 601.9 L480 600.4 L496 603.3 L512 606.9 L528 608.3 L544 606.9 L560 604.6 L576 604.7 L592 609.2 L608 618.2 L624 628.7 L640 636.9 L656 639.5 L672 635.8 L688 628.2 L704 620.9 L720 617.7 L736 620.1 L752 626.9 L768 635 L784 641.1 L800 644.1 L800 1000Z"/><linearGradient id="fog0" x1="0" y1="0" x2="0" y2="1"><stop offset="0" stop-color="oklch(0.6 0.15 45)" stop-opacity="0"/><stop offset=".6" stop-color="oklch(0.6 0.15 45)" stop-opacity=".55"/><stop offset="1" stop-color="oklch(0.6 0.15 45)" stop-opacity="0"/></linearGradient><rect y="620" width="800" height="100" fill="url(#fog0)"/>
<path fill="oklch(0.28 0.07 18)" d="M0 1000 L0 688 L16 690.4 L32 696 L48 702.2 L64 705.7 L80 704.8 L96 699.5 L112 692 L128 685.5 L144 682.4 L160 683.3 L176 686.8 L192 690.4 L208 692.3 L224 692.2 L240 692.1 L256 694.3 L272 700.8 L288 711.6 L304 724.6 L320 736.3 L336 743.9 L352 746.2 L368 744.2 L384 740.6 L400 737.8 L416 737.1 L432 737.6 L448 737.1 L464 733.7 L480 726.6 L496 717.4 L512 708.9 L528 704 L544 704.1 L560 708.2 L576 713.5 L592 717 L608 716.6 L624 712.7 L640 707.2 L656 702.5 L672 700.3 L688 700.3 L704 700.4 L720 698.2 L736 692.5 L752 683.7 L768 674.7 L784 668.6 L800 667.9 L800 1000Z M344.4 752.1 L342.5 701.3 L349.4 752.1Z M316.1 733.8 Q344.3 730.8 372.4 735.7 L338.1 691.2Z M320 718.1 Q342 715 364 719.9 L335.9 675.4Z M323.8 702.3 Q339.7 699.3 355.6 704.2 L333.6 659.7Z M327.7 686.6 Q337.5 683.5 347.2 688.4 L332.3 650.5Z M528.1 708.7 L528.4 667.2 L532.3 708.7Z M504.5 693.8 Q529.1 691.3 553.7 695.3 L526.6 658.9Z M508.9 680.9 Q528.2 678.4 547.4 682.4 L525.6 646Z M513.3 668 Q527.2 665.5 541.1 669.5 L524.7 633.1Z M517.7 655.1 Q526.3 652.7 534.8 656.6 L524.1 625.6Z M301.7 728.7 L302.4 691.2 L305.5 728.7Z M276.9 715.2 Q302.9 713 328.8 716.6 L301.2 683.7Z M281.9 703.6 Q302.2 701.3 322.5 704.9 L300.5 672Z M286.9 691.9 Q301.6 689.7 316.3 693.3 L299.9 660.4Z M291.9 680.3 Q301 678 310 681.6 L299.5 653.6Z M768.4 678.2 L770.2 639.5 L772.2 678.2Z M745.9 664.3 Q770.2 662 794.6 665.7 L770 631.7Z M751.1 652.3 Q770.2 650 789.2 653.7 L770 619.7Z M756.3 640.3 Q770.1 637.9 783.9 641.7 L769.9 607.7Z M761.6 628.3 Q770 625.9 778.5 629.7 L769.9 600.8Z M439.6 741.8 L440.1 706.7 L443.2 741.8Z M418.3 729.1 Q440.6 727 462.9 730.4 L438.7 699.6Z M423.6 714.6 Q439.7 712.5 455.7 715.9 L437.8 685.1Z M428.8 700.1 Q438.7 698 448.6 701.4 L436.9 671.5Z M215.6 698.5 L215.2 647.4 L220.7 698.5Z M183.5 680.1 Q216.4 677.1 249.2 682 L212.2 637.2Z M190.6 659 Q214.3 656 238 660.9 L210.1 616.1Z M197.7 637.9 Q212.2 634.8 226.8 639.7 L208.2 596.4Z M310.2 737.2 L308.5 687.9 L315.2 737.2Z M276.9 719.5 Q310.1 716.5 343.4 721.2 L304.2 678Z M283.2 699.1 Q307.2 696.1 331.3 700.9 L301.3 657.6Z M289.5 678.7 Q304.3 675.7 319.1 680.5 L298.6 638.6Z M579.2 718.6 L578.5 687.3 L582.3 718.6Z M557.5 707.3 Q579.4 705.4 601.3 708.5 L576.3 681Z M561.1 697.6 Q578.3 695.7 595.4 698.7 L575.1 671.3Z M564.7 687.9 Q577.1 686 589.5 689 L574 661.6Z M568.3 678.2 Q575.9 676.3 583.6 679.3 L573.3 655.9Z M31.9 702.9 L36.5 653.3 L36.9 702.9Z M1.4 685.1 Q35.6 682.1 69.9 686.9 L38.6 643.4Z M12.4 664.6 Q37.1 661.6 61.8 666.4 L40.1 622.9Z M23.3 644.1 Q38.6 641.1 53.8 645.9 L41.4 603.8Z M729.6 699 L729.6 661 L733.4 699Z M703.6 685.3 Q730.4 683.1 757.2 686.7 L727.8 653.4Z M708.4 673.6 Q729.4 671.3 750.4 674.9 L726.8 641.7Z M713.3 661.8 Q728.4 659.5 743.6 663.2 L725.8 629.9Z M718.2 650 Q727.5 647.7 736.8 651.4 L725.3 623.1Z M516.4 710.2 L517.4 680.2 L519.4 710.2Z M499.5 699.4 Q517.6 697.6 535.7 700.5 L516.9 674.2Z M503.2 690.1 Q517.3 688.3 531.5 691.2 L516.7 664.9Z M506.9 680.8 Q517.1 679 527.3 681.9 L516.4 655.6Z M510.5 671.5 Q516.8 669.7 523.1 672.5 L516.3 650.1Z M716.5 702.9 L720 667.4 L720 702.9Z M700.8 690.1 Q719.3 688 737.8 691.4 L721.8 660.3Z M707.2 675.5 Q720.6 673.3 733.9 676.7 L723.1 645.7Z M713.6 660.8 Q721.8 658.7 730 662.1 L724.2 632Z M222 695.9 L223.4 665.7 L225 695.9Z M206.4 685 Q223.4 683.2 240.5 686.1 L223.3 659.7Z M210 675.7 Q223.4 673.9 236.7 676.8 L223.3 650.4Z M213.7 666.3 Q223.3 664.5 233 667.4 L223.2 641Z M217.4 657 Q223.3 655.2 229.2 658.1 L223.2 635.6Z M374.8 748.3 L380.6 697.3 L379.9 748.3Z M346.1 729.9 Q379.3 726.8 412.5 731.7 L383.9 687.1Z M355 714.1 Q381 711 406.9 715.9 L385.6 671.2Z M363.9 698.3 Q382.7 695.2 401.4 700.1 L387.3 655.4Z M372.8 682.5 Q384.4 679.4 395.9 684.3 L388.3 646.3Z M673.1 705 L673.7 664.8 L677.1 705Z M653.3 690.5 Q674.3 688.1 695.3 692 L672.4 656.7Z M657.2 678 Q673.6 675.6 690 679.5 L671.7 644.2Z M661 665.6 Q672.9 663.2 684.7 667 L671 631.8Z M664.9 653.1 Q672.2 650.7 679.5 654.5 L670.6 624.5Z M55.5 709.4 L59.7 670.6 L59.3 709.4Z M33.8 695.4 Q58.8 693.1 83.8 696.8 L62.1 662.9Z M40.4 683.4 Q60 681.1 79.6 684.8 L63.3 650.8Z M47.1 671.4 Q61.2 669.1 75.4 672.8 L64.5 638.8Z M53.7 659.4 Q62.4 657.1 71.1 660.8 L65.2 631.9Z M788.7 672.8 L788.6 629.4 L793 672.8Z M759 657.2 Q789.5 654.6 820 658.7 L786.3 620.7Z M764.4 643.7 Q788.3 641.1 812.2 645.3 L785.1 607.3Z M769.9 630.3 Q787.1 627.7 804.4 631.8 L783.9 593.9Z M775.3 616.8 Q785.9 614.2 796.5 618.4 L783.2 586Z M211.4 698 L217.6 651.4 L216.1 698Z M188.7 681.2 Q216 678.4 243.4 682.9 L221.4 642.1Z M198.9 662 Q218.7 659.2 238.4 663.6 L224 622.8Z M209.1 642.7 Q221.3 639.9 233.4 644.4 L226.5 604.8Z M756.9 684.5 L761.5 644.8 L760.9 684.5Z M737.4 670.2 Q760.4 667.8 783.4 671.6 L764 636.9Z M745.6 653.8 Q762.2 651.4 778.8 655.2 L765.8 620.5Z M753.7 637.4 Q764 635.1 774.2 638.9 L767.4 605.2Z M253.8 699.4 L254.5 656.2 L258.2 699.4Z M230.4 683.9 Q255.1 681.3 279.8 685.4 L253.1 647.6Z M235.1 670.5 Q254.4 667.9 273.7 672.1 L252.3 634.2Z M239.7 657.1 Q253.6 654.5 267.6 658.7 L251.6 620.8Z M244.3 643.7 Q252.9 641.1 261.5 645.3 L251.2 613Z M374.1 745.8 L374.7 718.6 L376.8 745.8Z M357.6 736 Q375 734.4 392.3 737 L373.8 713.2Z M361.9 724.8 Q374.4 723.2 387 725.8 L373.3 702Z M366.2 713.6 Q373.9 711.9 381.6 714.5 L372.8 691.4Z M643.6 710.7 L645.3 665.2 L648.2 710.7Z M613.8 694.3 Q645.5 691.6 677.3 695.9 L644.8 656.1Z M620.4 680.2 Q645.3 677.5 670.1 681.8 L644.5 642Z M627 666.1 Q645 663.4 662.9 667.7 L644.2 627.9Z M633.6 652 Q644.7 649.3 655.7 653.6 L644 619.7Z M794.6 673.2 L797.8 625.9 L799.3 673.2Z M772.2 656.2 Q797.5 653.3 822.8 657.9 L798.7 616.4Z M778.1 641.5 Q797.9 638.7 817.7 643.2 L799.2 601.7Z M784.1 626.8 Q798.4 624 812.7 628.5 L799.6 587Z M790.1 612.1 Q798.9 609.3 807.7 613.9 L799.9 578.5Z M15.7 693.8 L18.2 668.4 L18.2 693.8Z M0.4 684.6 Q17.7 683.1 35 685.5 L19.4 663.3Z M4.8 676.7 Q18.3 675.2 31.8 677.7 L20 655.4Z M9.2 668.9 Q19 667.3 28.7 669.8 L20.6 647.5Z M13.6 661 Q19.6 659.5 25.6 661.9 L21 643Z"/><linearGradient id="fog1" x1="0" y1="0" x2="0" y2="1"><stop offset="0" stop-color="oklch(0.39 0.1 25)" stop-opacity="0"/><stop offset=".6" stop-color="oklch(0.39 0.1 25)" stop-opacity=".55"/><stop offset="1" stop-color="oklch(0.39 0.1 25)" stop-opacity="0"/></linearGradient><rect y="690" width="800" height="100" fill="url(#fog1)"/>
<path fill="oklch(0.2 0.045 10)" d="M0 1000 L0 790.7 L16 795 L32 801.3 L48 807.1 L64 810.2 L80 809.1 L96 804.7 L112 799.3 L128 795.7 L144 796 L160 800.1 L176 806.3 L192 812.3 L208 816.3 L224 818.2 L240 819.4 L256 822.1 L272 827.5 L288 835.3 L304 843.3 L320 848.7 L336 849.4 L352 845 L368 837.1 L384 828.5 L400 821.6 L416 817.5 L432 815.2 L448 812.9 L464 808.7 L480 802.4 L496 795.4 L512 789.9 L528 788.2 L544 790.8 L560 796.4 L576 802.2 L592 805.4 L608 804.8 L624 801 L640 796 L656 792.3 L672 791.3 L688 792.6 L704 794.4 L720 794.6 L736 792.4 L752 788.6 L768 785.5 L784 785.7 L800 790.6 L800 1000Z M501.1 803.9 L511.3 701 L511.4 803.9Z M448 766.8 Q509.3 760.6 570.6 770.5 L516.4 680.4Z M468.5 724.3 Q512.8 718.1 557 728 L519.8 637.8Z M489 681.7 Q516.2 675.6 543.5 685.4 L523.1 598Z M782.6 800.6 L792.2 683.3 L794.3 800.6Z M706.9 758.4 Q790.7 751.4 874.5 762.6 L795.9 659.9Z M727 722 Q792.6 715 858.2 726.3 L797.9 623.5Z M747.2 685.7 Q794.5 678.6 841.9 689.9 L799.8 587.1Z M767.3 649.3 Q796.5 642.3 825.6 653.5 L800.9 566Z M635.1 804.5 L633.2 737.5 L641.8 804.5Z M589.6 780.4 Q635.3 776.4 681 782.8 L628 724.1Z M598.7 752.7 Q631.7 748.7 664.7 755.1 L624.5 696.5Z M607.9 725 Q628.2 721 648.5 727.4 L621.1 670.6Z M331.4 862.5 L331 752.1 L342.5 862.5Z M263.3 822.8 Q333.4 816.1 403.5 826.7 L325.1 730Z M278.7 777.1 Q329.3 770.5 380 781.1 L321 684.3Z M294.1 731.5 Q325.2 724.8 356.4 735.4 L317.2 641.6Z M279.9 848.5 L294.9 729.1 L291.8 848.5Z M216.7 805.5 Q291.3 798.4 365.9 809.8 L303.9 705.2Z M243.6 756.2 Q297.5 749 351.4 760.5 L310.1 655.9Z M270.6 706.8 Q303.7 699.6 336.9 711.1 L316 609.7Z M28.5 814.6 L28.7 709.3 L39 814.6Z M-34.6 776.7 Q30.7 770.4 96 780.5 L23.6 688.3Z M-19.9 733.2 Q27.2 726.9 74.4 737 L20.1 644.7Z M-5.3 689.7 Q23.7 683.3 52.8 693.4 L16.9 604Z M686.2 806.6 L688.1 694.1 L697.4 806.6Z M618.9 766.1 Q689.6 759.3 760.2 770.1 L684.4 671.6Z M636 719.6 Q687 712.8 738 723.6 L681.8 625.1Z M653.1 673.1 Q684.4 666.4 715.8 677.1 L679.4 581.6Z M726.4 805.6 L738.5 702.7 L736.7 805.6Z M672.2 768.6 Q735.7 762.4 799.3 772.3 L745.4 682.1Z M694.6 726 Q740.5 719.8 786.4 729.7 L750.1 639.5Z M717 683.5 Q745.2 677.3 773.5 687.2 L754.5 599.7Z M782.5 798 L788 700.6 L792.3 798Z M736.4 763 Q787.8 757.1 839.2 766.5 L788.7 681.2Z M747.9 732.8 Q788.1 726.9 828.4 736.3 L789 651Z M759.4 702.6 Q788.4 696.8 817.5 706.1 L789.3 620.8Z M770.9 672.4 Q788.8 666.6 806.6 675.9 L789.5 603.3Z M395.2 830.2 L393 762.8 L402 830.2Z M355.6 806 Q395.3 801.9 434.9 808.4 L387.5 749.3Z M361.4 785.1 Q392.4 781 423.4 787.5 L384.6 728.4Z M367.1 764.1 Q389.5 760.1 411.9 766.6 L381.7 707.5Z M372.8 743.2 Q386.6 739.2 400.4 745.7 L380 695.4Z M244.3 829.3 L250.6 755.9 L251.7 829.3Z M210.7 802.9 Q249.6 798.5 288.4 805.5 L253.2 741.2Z M220.5 780.1 Q250.9 775.7 281.3 782.8 L254.5 718.5Z M230.3 757.4 Q252.2 753 274.2 760 L255.8 695.8Z M240.1 734.6 Q253.6 730.2 267.1 737.3 L256.6 682.6Z"/><linearGradient id="fog2" x1="0" y1="0" x2="0" y2="1"><stop offset="0" stop-color="oklch(0.28 0.07 18)" stop-opacity="0"/><stop offset=".6" stop-color="oklch(0.28 0.07 18)" stop-opacity=".55"/><stop offset="1" stop-color="oklch(0.28 0.07 18)" stop-opacity="0"/></linearGradient><rect y="790" width="800" height="100" fill="url(#fog2)"/>
<path fill="oklch(0.15 0.03 350)" d="M0 1000 L0 935.2 L16 937.1 L32 940.3 L48 943.5 L64 945.2 L80 944.6 L96 941.8 L112 937.6 L128 933.5 L144 930.4 L160 928.4 L176 927 L192 925.2 L208 922.3 L224 918.4 L240 914.5 L256 912.1 L272 911.9 L288 914.2 L304 918 L320 921.9 L336 924.6 L352 925.6 L368 925.4 L384 925 L400 925.5 L416 927.2 L432 929.5 L448 931.3 L464 931.7 L480 930.5 L496 928.2 L512 926.4 L528 926.2 L544 928.2 L560 932 L576 936.4 L592 940 L608 942 L624 942.5 L640 942.4 L656 942.7 L672 943.8 L688 945.4 L704 946.5 L720 945.9 L736 942.9 L752 938 L768 932.2 L784 927.3 L800 924.1 L800 1000Z M268.5 913.8 Q273.2 872.6 280.6 845.1 Q274.2 879.5 271.7 913.8Z M390.5 927.1 Q391.1 891.5 388.7 867.7 Q392.1 897.4 393.7 927.1Z M9.3 938.4 Q14.7 900.1 23.4 874.7 Q15.7 906.5 12.5 938.4Z M524.3 928.1 Q523.3 896.5 517.2 875.5 Q524.3 901.8 527.5 928.1Z M56.3 946.8 Q55 915.4 48.2 894.4 Q56 920.6 59.5 946.8Z M741.7 942.9 Q745.8 906.6 751.6 882.5 Q746.8 912.7 744.9 942.9Z M366.1 927.4 Q365.5 891.1 360.4 866.9 Q366.5 897.1 369.3 927.4Z M186.3 927.8 Q188.5 905.5 189.8 890.7 Q189.5 909.2 189.5 927.8Z M149.3 931.4 Q149.2 891.2 145.3 864.4 Q150.2 897.9 152.5 931.4Z M123.6 936.2 Q123.4 910 119.1 892.6 Q124.4 914.4 126.8 936.2Z M305.6 920.8 Q304.7 895.9 298.9 879.3 Q305.7 900.1 308.8 920.8Z M321.4 924.5 Q323.4 891.6 324.4 869.7 Q324.4 897.1 324.6 924.5Z M327.5 925.6 Q332.2 889.9 339.3 866.1 Q333.2 895.8 330.7 925.6Z M330.5 926 Q331.9 906 331.4 892.6 Q332.9 909.3 333.7 926Z M367.8 927.3 Q369.6 887 370.2 860.2 Q370.6 893.7 371 927.3Z M552.8 932.5 Q557.9 899.3 566.1 877.1 Q558.9 904.8 556 932.5Z M372.7 927.2 Q377.2 887.4 384 860.9 Q378.2 894.1 375.9 927.2Z M699.8 948.4 Q698.1 921 690.6 902.7 Q699.1 925.5 703 948.4Z M371.6 927.2 Q373.6 904.8 374.3 889.9 Q374.6 908.6 374.8 927.2Z M427.3 931.1 Q429.7 911.5 431.5 898.4 Q430.7 914.7 430.5 931.1Z M632.6 944.5 Q631.5 903.7 625.4 876.6 Q632.5 910.5 635.8 944.5Z M406.1 928.2 Q409.7 904.5 414.5 888.6 Q410.7 908.4 409.3 928.2Z M682.4 947 Q686 929.1 690.7 917.2 Q687 932.1 685.6 947Z M263.1 913.7 Q266.2 896.4 269.9 884.8 Q267.2 899.3 266.3 913.7Z M771.2 932.6 Q772.9 909.6 773 894.3 Q773.9 913.5 774.4 932.6Z M242.2 915.8 Q240.3 886.6 232 867.1 Q241.3 891.4 245.4 915.8Z M524.7 928.1 Q524.8 914 521.1 904.6 Q525.8 916.4 527.9 928.1Z M778.5 930.3 Q778.5 914.3 774.7 903.6 Q779.5 917 781.7 930.3Z M214.6 922.3 Q213.9 900.4 208.4 885.8 Q214.9 904.1 217.8 922.3Z M640.6 944.4 Q639.7 903.8 633.8 876.8 Q640.7 910.6 643.8 944.4Z M616.8 944.5 Q621.8 917 629.7 898.6 Q622.8 921.6 620 944.5Z M91 944.6 Q96.3 911.2 104.9 889 Q97.3 916.8 94.2 944.6Z M708 948.5 Q709.2 924.5 708.2 908.4 Q710.2 928.5 711.2 948.5Z M670.1 945.8 Q667.7 909.9 658.3 885.9 Q668.7 915.8 673.3 945.8Z M51.7 946.2 Q55.5 920.9 60.7 904 Q56.5 925.1 54.9 946.2Z M106.5 940.7 Q107.6 927 106.2 917.8 Q108.6 929.3 109.7 940.7Z M42.6 944.8 Q43.5 925.2 42.1 912.2 Q44.5 928.5 45.8 944.8Z M590.6 942 Q591 927.9 588.1 918.5 Q592 930.3 593.8 942Z M728.2 946.3 Q728.5 930.3 725.3 919.7 Q729.5 933 731.4 946.3Z M176.1 928.9 Q175.4 889 169.9 862.4 Q176.4 895.7 179.3 928.9Z M640.4 944.4 Q644.2 919.1 649.4 902.2 Q645.2 923.3 643.6 944.4Z M768.2 933.6 Q774.1 893.4 784 866.6 Q775.1 900.1 771.4 933.6Z M544.2 930.6 Q545.8 902 545.6 883 Q546.8 906.8 547.4 930.6Z M769.2 933.3 Q770.9 912.4 771.4 898.6 Q771.9 915.9 772.4 933.3Z M342.2 927.2 Q343 895.1 341 873.7 Q344 900.5 345.4 927.2Z M195.4 926.4 Q197.7 896.7 199.4 877 Q198.7 901.7 198.6 926.4Z M758.8 936.9 Q757.2 909.9 749.7 891.9 Q758.2 914.4 762 936.9Z M240 916.2 Q241.4 885.1 240.7 864.4 Q242.4 890.3 243.2 916.2Z M200.5 925.5 Q202.7 898.2 204 879.9 Q203.7 902.7 203.7 925.5Z M686.6 947.4 Q687.1 920.7 684.7 902.9 Q688.1 925.2 689.8 947.4Z M414.2 929.2 Q414.5 910.2 411.6 897.6 Q415.5 913.4 417.4 929.2Z M145.5 931.9 Q145.3 907.4 140.9 891.1 Q146.3 911.5 148.7 931.9Z M554.7 933 Q552.9 897.2 545.1 873.3 Q553.9 903.2 557.9 933Z M174.1 929.1 Q175.7 887.2 175.7 859.3 Q176.7 894.2 177.3 929.1Z M36 943.5 Q33.9 909.9 25.3 887.5 Q34.9 915.5 39.2 943.5Z M768.9 933.4 Q770.1 913.4 769.1 900.2 Q771.1 916.8 772.1 933.4Z M473 933.1 Q476.6 899.9 481.2 877.7 Q477.6 905.4 476.2 933.1Z M32.3 942.7 Q33.9 917 33.8 899.9 Q34.9 921.3 35.5 942.7Z M313.4 922.8 Q313.9 908.3 311.5 898.7 Q314.9 910.7 316.6 922.8Z M727 946.6 Q727.4 911 724.6 887.3 Q728.4 916.9 730.2 946.6Z M204.3 924.7 Q203.4 901.3 197.6 885.7 Q204.4 905.2 207.5 924.7Z M733.9 945 Q735.8 930.4 736.4 920.6 Q736.8 932.8 737.1 945Z M682.7 947.1 Q686 932.9 690 923.5 Q687 935.3 685.9 947.1Z M420.3 930 Q421.4 893 420.1 868.3 Q422.4 899.2 423.5 930Z M692.2 948 Q695.9 928.7 700.8 915.9 Q696.9 931.9 695.4 948Z M449.4 933.5 Q449.9 913.7 447.1 900.4 Q450.9 917 452.6 933.5Z M564.5 935.7 Q567.6 921.5 571.1 912 Q568.6 923.8 567.7 935.7Z M251.8 914.3 Q250.5 889.6 243.7 873.2 Q251.5 893.7 255 914.3Z M179.6 928.5 Q181.6 895.4 182.6 873.4 Q182.6 901 182.8 928.5Z M214.7 922.3 Q216.3 893.3 216.3 874 Q217.3 898.2 217.9 922.3Z M57.1 946.9 Q59.7 907.8 62.2 881.7 Q60.7 914.3 60.3 946.9Z M330.7 926.1 Q333 886.4 334.5 860 Q334 893 333.9 926.1Z M25.3 941.2 Q27.8 912.8 30 893.9 Q28.8 917.5 28.5 941.2Z M341.9 927.2 Q344.8 893.2 347.6 870.6 Q345.8 898.9 345.1 927.2Z M603.5 943.8 Q606.4 924 609.2 910.8 Q607.4 927.3 606.7 943.8Z M115.5 938.3 Q118 918.5 120 905.4 Q119 921.8 118.7 938.3Z M712.5 948.4 Q713.5 930.8 712.1 919 Q714.5 933.7 715.7 948.4Z M339.5 927 Q341.3 906.2 342 892.4 Q342.3 909.7 342.7 927Z M697.4 948.3 Q701.9 924.1 708.9 908 Q702.9 928.2 700.6 948.3Z M432.9 931.9 Q435.1 896.9 436.6 873.6 Q436.1 902.7 436.1 931.9Z M401.6 927.8 Q404.4 905 407.1 889.9 Q405.4 908.8 404.8 927.8Z M350.5 927.6 Q349.2 888.5 342.3 862.5 Q350.2 895 353.7 927.6Z M518.8 928 Q522.7 897.6 527.9 877.3 Q523.7 902.6 522 928Z M725.2 946.9 Q729 917.4 734 897.8 Q730 922.4 728.4 946.9Z M298.7 919.1 Q299.5 902.8 297.7 891.9 Q300.5 905.5 301.9 919.1Z M257.7 913.8 Q260 887.9 261.7 870.6 Q261 892.2 260.9 913.8Z M253.6 914.1 Q254 879.8 251.1 856.9 Q255 885.5 256.8 914.1Z M349.9 927.5 Q349.1 896.5 343.6 875.8 Q350.1 901.7 353.1 927.5Z M365.6 927.4 Q368.4 908.1 371.2 895.3 Q369.4 911.3 368.8 927.4Z M450 933.6 Q448.1 905.2 439.9 886.3 Q449.1 909.9 453.2 933.6Z M259 913.8 Q259.1 894.2 255.5 881.2 Q260.1 897.5 262.2 913.8Z M565.8 936.1 Q564.4 902.1 557.2 879.4 Q565.4 907.7 569 936.1Z M370.9 927.2 Q376.2 889.2 384.7 863.8 Q377.2 895.5 374.1 927.2Z M542.7 930.3 Q543 908.8 540 894.5 Q544 912.4 545.9 930.3Z M395.1 927.3 Q399 902.5 404.5 885.9 Q400 906.6 398.3 927.3Z M545.1 930.7 Q546 911.8 544.5 899.2 Q547 915 548.3 930.7Z M130.8 934.5 Q132 912.8 131.1 898.3 Q133 916.4 134 934.5Z M205.2 924.5 Q211.2 888.7 221.7 864.9 Q212.2 894.7 208.4 924.5Z M450.4 933.6 Q451 910.5 448.5 895 Q452 914.3 453.6 933.6Z M646.7 944.5 Q649.7 921.5 653 906.2 Q650.7 925.3 649.9 944.5Z M320.6 924.3 Q318.6 889.6 310.1 866.4 Q319.6 895.4 323.8 924.3Z M179.8 928.5 Q179 906 173.4 891.1 Q180 909.8 183 928.5Z M626.4 944.5 Q628.4 925 629.5 912 Q629.4 928.3 629.6 944.5Z M730.2 945.9 Q729.7 912.5 724.8 890.2 Q730.7 918.1 733.4 945.9Z M277.5 914.7 Q283.2 881.3 292.8 859.1 Q284.2 886.9 280.7 914.7Z M550.2 931.9 Q551.9 900.6 552.2 879.7 Q552.9 905.8 553.4 931.9Z M171.5 929.3 Q174.2 915.5 176.7 906.3 Q175.2 917.8 174.7 929.3Z M544.4 930.6 Q544.5 912.8 541.1 900.9 Q545.5 915.8 547.6 930.6Z M788 927.9 Q791.8 901.1 797.1 883.2 Q792.8 905.5 791.2 927.9Z M350.1 927.5 Q354.6 888 361.5 861.6 Q355.6 894.6 353.3 927.5Z M96.1 943.4 Q96.6 923.5 94.1 910.3 Q97.6 926.8 99.3 943.4Z M667.5 945.5 Q672.2 907.7 679.4 882.5 Q673.2 914 670.7 945.5Z M770 933 Q771.2 904.2 770.2 885 Q772.2 909 773.2 933Z M574.8 938.5 Q576.2 923.6 575.5 913.7 Q577.2 926.1 578 938.5Z"/>

  <circle cx="610.8" cy="800" r="170" fill="url(#lantern)"/>
  <circle cx="400" cy="596" r="68" fill="oklch(0.15 0.03 350)"/>
  <path fill="oklch(0.15 0.03 350)" d="M213 970 Q223.2 759.2 298 643.6 Q400 623.2 502 643.6 Q576.8 759.2 587 970Z
    M230 555.2 Q400 514.4 576.8 541.6 Q406.8 575.6 230 555.2Z
    M332 545 Q332 453.2 379.6 419.2 Q440.8 378.4 522.4 432.8 Q468 432.8 451 473.6 L468 541.6Z
    M502 759.2 L610.8 745.6 L610.8 766 L515.6 786.4Z"/>
  <circle cx="610.8" cy="800" r="23.8" fill="oklch(0.88 0.17 128)"/>
</svg>
